<svg width="35" height="36" viewBox="0 0 35 36" fill="none" xmlns="http://www.w3.org/2000/svg">
<path d="M11.3603 28.3555C9.04631 27.0014 7.24488 24.9203 6.23649 22.4361C3.71138 16.2163 6.70826 9.1266 12.928 6.60222C15.7505 5.45646 18.9003 5.41222 21.7539 6.47826M27.9277 11.6203C28.2491 12.157 28.5274 12.7148 28.7626 13.2938C31.287 19.5136 28.2916 26.6033 22.0711 29.1284C20.2771 29.8555 18.3349 30.1445 16.4069 29.9713M24.6093 18.037C24.6202 19.6412 23.9822 20.8932 22.7842 22.326C22.3423 22.8546 20.8665 22.8306 19.9886 22.4791C19.4898 22.2793 19.3207 21.8017 19.2397 21.0171C19.0574 19.2569 19.7501 17.9131 20.9124 16.6815M24.6093 18.037L20.9124 16.6815M24.6093 18.037C27.6171 13.2974 30.5484 7.90233 26.2084 4.67285C24.6115 3.4843 22.2767 4.90108 21.6073 6.84066C21.0969 8.3216 20.9423 8.97493 21.04 10.2568C21.1727 11.9944 21.2282 13.5694 20.9124 16.6815M11.0198 26.5551C11.0636 28.1593 11.7432 29.3887 12.99 30.7799C13.4494 31.2933 14.9223 31.2182 15.79 30.8368C16.2808 30.621 16.4332 30.1375 16.4878 29.3508C16.6096 27.5862 15.871 26.2664 14.6686 25.0749M11.0198 26.5551L14.6686 25.0749M11.0198 26.5551C7.85159 21.9206 4.73878 16.629 8.96503 13.2537C10.5211 12.0112 12.9025 13.3485 13.6375 15.2633C14.199 16.726 14.3754 17.3742 14.3215 18.6583C14.2486 20.3988 14.2471 21.976 14.6686 25.0749" stroke="white" stroke-width="0.729167" stroke-linecap="round" stroke-linejoin="round"/>
</svg>
