<svg width="35" height="36" viewBox="0 0 35 36" fill="none" xmlns="http://www.w3.org/2000/svg">
<path d="M3.28125 28.5918L16.5521 13.4251V28.5918H3.28125ZM18.4479 28.5918C18.4479 26.8319 19.147 25.1442 20.3914 23.8998C21.6358 22.6554 23.3235 21.9563 25.0833 21.9563C26.8432 21.9563 28.5309 22.6554 29.7753 23.8998C31.0197 25.1442 31.7188 26.8319 31.7188 28.5918H18.4479ZM31.7188 6.78967L18.4479 21.9563V6.78967H31.7188ZM16.5521 6.78967C16.5521 7.66105 16.3805 8.52389 16.047 9.32894C15.7135 10.134 15.2248 10.8655 14.6086 11.4816C13.3642 12.726 11.6765 13.4251 9.91667 13.4251C8.15685 13.4251 6.4691 12.726 5.22472 11.4816C3.98034 10.2372 3.28125 8.54949 3.28125 6.78967H16.5521Z" stroke="white" stroke-width="0.729167" stroke-linecap="round" stroke-linejoin="round"/>
</svg>
