<svg width="20" height="20" viewBox="0 0 20 20" fill="none" xmlns="http://www.w3.org/2000/svg">
<path d="M1.6665 2.5L1.88734 2.57333C2.98734 2.94 3.53734 3.12333 3.8515 3.56C4.16567 3.99667 4.1665 4.57667 4.1665 5.73583V7.91667C4.1665 10.2733 4.1665 11.4525 4.899 12.1842C5.63067 12.9167 6.80984 12.9167 9.1665 12.9167H15.8332" stroke="white" stroke-linecap="round"/>
<path d="M6.25 15C6.58152 15 6.89946 15.1317 7.13388 15.3661C7.3683 15.6005 7.5 15.9185 7.5 16.25C7.5 16.5815 7.3683 16.8995 7.13388 17.1339C6.89946 17.3683 6.58152 17.5 6.25 17.5C5.91848 17.5 5.60054 17.3683 5.36612 17.1339C5.1317 16.8995 5 16.5815 5 16.25C5 15.9185 5.1317 15.6005 5.36612 15.3661C5.60054 15.1317 5.91848 15 6.25 15ZM13.75 15C14.0815 15 14.3995 15.1317 14.6339 15.3661C14.8683 15.6005 15 15.9185 15 16.25C15 16.5815 14.8683 16.8995 14.6339 17.1339C14.3995 17.3683 14.0815 17.5 13.75 17.5C13.4185 17.5 13.1005 17.3683 12.8661 17.1339C12.6317 16.8995 12.5 16.5815 12.5 16.25C12.5 15.9185 12.6317 15.6005 12.8661 15.3661C13.1005 15.1317 13.4185 15 13.75 15Z" stroke="white"/>
<path d="M9.1665 7.5H6.6665" stroke="white" stroke-linecap="round"/>
<path d="M4.1665 5H13.7082C15.4207 5 16.2773 5 16.6482 5.56167C17.0182 6.12417 16.6815 6.91083 16.0065 8.485L15.649 9.31833C15.334 10.0533 15.1765 10.42 14.864 10.6267C14.5507 10.8333 14.1507 10.8333 13.3515 10.8333H4.1665" stroke="white"/>
</svg>
