<svg width="17" height="17" viewBox="0 0 17 17" fill="none" xmlns="http://www.w3.org/2000/svg">
<path d="M7.4375 3.1875H9.5625C9.5625 2.90571 9.45056 2.63546 9.2513 2.4362C9.05204 2.23694 8.78179 2.125 8.5 2.125C8.21821 2.125 7.94796 2.23694 7.7487 2.4362C7.54944 2.63546 7.4375 2.90571 7.4375 3.1875ZM6.375 3.1875C6.375 2.62391 6.59888 2.08341 6.9974 1.6849C7.39591 1.28638 7.93641 1.0625 8.5 1.0625C9.06359 1.0625 9.60409 1.28638 10.0026 1.6849C10.4011 2.08341 10.625 2.62391 10.625 3.1875H14.875C15.0159 3.1875 15.151 3.24347 15.2507 3.3431C15.3503 3.44273 15.4062 3.57785 15.4062 3.71875C15.4062 3.85965 15.3503 3.99477 15.2507 4.0944C15.151 4.19403 15.0159 4.25 14.875 4.25H14.2758L12.9954 13.6404C12.9086 14.2767 12.5941 14.8601 12.1103 15.2824C11.6264 15.7048 11.0059 15.9375 10.3636 15.9375H6.63637C5.99411 15.9375 5.3736 15.7048 4.88973 15.2824C4.40586 14.8601 4.0914 14.2767 4.00456 13.6404L2.72425 4.25H2.125C1.9841 4.25 1.84898 4.19403 1.74935 4.0944C1.64972 3.99477 1.59375 3.85965 1.59375 3.71875C1.59375 3.57785 1.64972 3.44273 1.74935 3.3431C1.84898 3.24347 1.9841 3.1875 2.125 3.1875H6.375ZM7.4375 6.90625C7.4375 6.76535 7.38153 6.63023 7.2819 6.5306C7.18227 6.43097 7.04715 6.375 6.90625 6.375C6.76535 6.375 6.63023 6.43097 6.5306 6.5306C6.43097 6.63023 6.375 6.76535 6.375 6.90625V12.2188C6.375 12.3596 6.43097 12.4948 6.5306 12.5944C6.63023 12.694 6.76535 12.75 6.90625 12.75C7.04715 12.75 7.18227 12.694 7.2819 12.5944C7.38153 12.4948 7.4375 12.3596 7.4375 12.2188V6.90625ZM10.0938 6.375C10.2346 6.375 10.3698 6.43097 10.4694 6.5306C10.569 6.63023 10.625 6.76535 10.625 6.90625V12.2188C10.625 12.3596 10.569 12.4948 10.4694 12.5944C10.3698 12.694 10.2346 12.75 10.0938 12.75C9.95285 12.75 9.81773 12.694 9.7181 12.5944C9.61847 12.4948 9.5625 12.3596 9.5625 12.2188V6.90625C9.5625 6.76535 9.61847 6.63023 9.7181 6.5306C9.81773 6.43097 9.95285 6.375 10.0938 6.375ZM5.0575 13.4969C5.10964 13.8787 5.29831 14.2286 5.58858 14.482C5.87886 14.7353 6.25109 14.8749 6.63637 14.875H10.3636C10.7491 14.8752 11.1216 14.7357 11.4121 14.4823C11.7026 14.2289 11.8914 13.8789 11.9436 13.4969L13.2037 4.25H3.79631L5.0575 13.4969Z" fill="#CACACA"/>
</svg>
