<svg width="14" height="14" viewBox="0 0 14 14" fill="none" xmlns="http://www.w3.org/2000/svg">
<path d="M6.36776 0.341309L6.10526 1.31839C5.93026 1.96939 5.94776 2.68164 6.14609 3.42073C6.30204 4.00306 6.585 4.54363 6.97465 5.00363C7.36429 5.46364 7.85096 5.83166 8.39971 6.08127C8.94845 6.33088 9.54566 6.4559 10.1485 6.44733C10.7512 6.43876 11.3447 6.29683 11.8861 6.03172L12.785 5.59306L12.7249 6.59056C12.6882 7.19373 12.5062 7.79222 12.1883 8.42806L11.9281 8.94956L10.8839 8.42747L11.1453 7.90598C11.2226 7.7512 11.2884 7.60342 11.3424 7.46264C10.0086 7.79016 8.59946 7.58192 7.41735 6.88258C6.23524 6.18324 5.37427 5.04849 5.01909 3.72173C4.87032 3.18019 4.80385 2.61936 4.82192 2.05806C3.85757 2.53776 3.08883 3.33627 2.64611 4.31815C2.20338 5.30003 2.11393 6.40483 2.39292 7.44514C2.40284 7.48072 2.44251 7.59156 2.49442 7.72514L2.55567 7.88089L2.57492 7.92872L2.58076 7.94156L2.58192 7.94564L2.80242 8.48581L1.72209 8.92681L1.50159 8.38664L1.49984 8.38081L1.49401 8.36681L1.47242 8.31431L1.40651 8.14631C1.35384 8.01549 1.30712 7.88236 1.26651 7.74731C0.431757 4.63581 2.27859 1.43739 5.39009 0.603225L6.36776 0.341309ZM1.16734 9.91673H4.66734V11.0834H1.16734V9.91673ZM5.83401 9.91673H12.834V11.0834H5.83401V9.91673ZM9.91734 12.2501H12.834V13.4167H9.91734V12.2501ZM1.16734 12.2501H8.75067V13.4167H1.16734V12.2501Z" fill="white"/>
</svg>
