<svg width="25" height="25" viewBox="0 0 25 25" fill="none" xmlns="http://www.w3.org/2000/svg">
<path d="M2.08301 10.4167C2.08301 7.47083 2.08301 5.99687 2.99863 5.08229C3.91322 4.16667 5.38717 4.16667 8.33301 4.16667H16.6663C19.6122 4.16667 21.0861 4.16667 22.0007 5.08229C22.9163 5.99687 22.9163 7.47083 22.9163 10.4167V14.5833C22.9163 17.5292 22.9163 19.0031 22.0007 19.9177C21.0861 20.8333 19.6122 20.8333 16.6663 20.8333H8.33301C5.38717 20.8333 3.91322 20.8333 2.99863 19.9177C2.08301 19.0031 2.08301 17.5292 2.08301 14.5833V10.4167Z" stroke="#161819" stroke-width="1.5" stroke-linecap="round" stroke-linejoin="round"/>
<path d="M12.4997 13.5417C12.4997 10.4062 6.24967 5.58333 6.24967 10.3167C6.24967 11.9479 7.04447 13.5417 8.85384 13.5417H12.4997ZM12.4997 13.5417C12.4997 10.4062 18.7497 5.58333 18.7497 10.3167C18.7497 11.9479 17.9549 13.5417 16.1455 13.5417H12.4997ZM12.4997 13.5417L15.6247 16.6667M12.4997 13.5417L9.37468 16.6667M12.4997 4.16667V20.8333M2.08301 13.5417H22.9163" stroke="#161819" stroke-width="1.5" stroke-linecap="round" stroke-linejoin="round"/>
</svg>
