<svg width="19" height="18" viewBox="0 0 19 18" fill="none" xmlns="http://www.w3.org/2000/svg">
<path d="M13.3863 4.17247C13.2101 4.17247 13.0378 4.22473 12.8912 4.32265C12.7447 4.42057 12.6304 4.55974 12.563 4.72258C12.4956 4.88541 12.4779 5.06459 12.5123 5.23745C12.5467 5.41032 12.6315 5.5691 12.7562 5.69373C12.8808 5.81836 13.0396 5.90323 13.2125 5.93761C13.3853 5.972 13.5645 5.95435 13.7273 5.8869C13.8902 5.81945 14.0293 5.70524 14.1273 5.55869C14.2252 5.41214 14.2774 5.23985 14.2774 5.0636C14.2774 4.82726 14.1835 4.60059 14.0164 4.43347C13.8493 4.26635 13.6226 4.17247 13.3863 4.17247ZM16.8023 5.96959C16.7877 5.35346 16.6723 4.74387 16.4607 4.16504C16.2727 3.66938 15.9787 3.22078 15.5993 2.85062C15.2316 2.46997 14.7821 2.17794 14.2849 1.99661C13.7076 1.7784 13.0973 1.66036 12.4803 1.64758C11.6931 1.60303 11.4407 1.60303 9.42075 1.60303C7.40085 1.60303 7.14836 1.60303 6.36119 1.64758C5.74419 1.66036 5.13391 1.7784 4.55664 1.99661C4.06056 2.18022 3.61157 2.47195 3.24222 2.85062C2.86157 3.21834 2.56954 3.66782 2.38821 4.16504C2.17 4.7423 2.05197 5.35259 2.03919 5.96959C1.99463 6.75676 1.99463 7.00924 1.99463 9.02915C1.99463 11.0491 1.99463 11.3015 2.03919 12.0887C2.05197 12.7057 2.17 13.316 2.38821 13.8933C2.56954 14.3905 2.86157 14.84 3.24222 15.2077C3.61157 15.5864 4.06056 15.8781 4.55664 16.0617C5.13391 16.2799 5.74419 16.3979 6.36119 16.4107C7.14836 16.4553 7.40085 16.4553 9.42075 16.4553C11.4407 16.4553 11.6931 16.4553 12.4803 16.4107C13.0973 16.3979 13.7076 16.2799 14.2849 16.0617C14.7821 15.8804 15.2316 15.5883 15.5993 15.2077C15.9797 14.8383 16.2738 14.3895 16.4607 13.8933C16.6723 13.3144 16.7877 12.7048 16.8023 12.0887C16.8023 11.3015 16.8469 11.0491 16.8469 9.02915C16.8469 7.00924 16.8469 6.75676 16.8023 5.96959ZM15.4656 11.9996C15.4604 12.471 15.375 12.9381 15.2131 13.3809C15.0946 13.704 14.9041 13.9961 14.6562 14.2349C14.4151 14.4801 14.1238 14.6701 13.8022 14.7918C13.3594 14.9537 12.8923 15.039 12.4209 15.0443C11.6783 15.0814 11.4035 15.0889 9.45046 15.0889C7.49739 15.0889 7.22262 15.0889 6.48001 15.0443C5.99051 15.0539 5.50306 14.9785 5.03934 14.8215C4.73204 14.6933 4.45409 14.5038 4.22247 14.2646C3.97598 14.026 3.78792 13.7337 3.67293 13.4106C3.49103 12.9616 3.39044 12.4838 3.37589 11.9996C3.37589 11.257 3.33133 10.9822 3.33133 9.02915C3.33133 7.07608 3.33133 6.80131 3.37589 6.0587C3.3786 5.57673 3.46659 5.09904 3.6358 4.64774C3.76654 4.33429 3.9672 4.05488 4.22247 3.83086C4.44742 3.5748 4.72643 3.37189 5.03934 3.23677C5.49189 3.07301 5.96905 2.98763 6.4503 2.98429C7.19291 2.98429 7.46768 2.93973 9.42075 2.93973C11.3738 2.93973 11.6486 2.93973 12.3912 2.98429C12.8626 2.98955 13.3297 3.07493 13.7725 3.23677C14.1099 3.36202 14.4128 3.56564 14.6562 3.83086C14.8988 4.05961 15.0888 4.33832 15.2131 4.64774C15.3783 5.0999 15.4638 5.57731 15.4656 6.0587C15.5027 6.80131 15.5102 7.07608 15.5102 9.02915C15.5102 10.9822 15.5027 11.257 15.4656 11.9996ZM9.42075 5.21955C8.6676 5.22102 7.93179 5.44569 7.30628 5.86519C6.68077 6.28469 6.19364 6.88018 5.90644 7.57642C5.61924 8.27266 5.54485 9.03841 5.69269 9.77691C5.84052 10.5154 6.20393 11.1935 6.73701 11.7256C7.27008 12.2576 7.9489 12.6197 8.68769 12.7661C9.42648 12.9125 10.1921 12.8366 10.8878 12.548C11.5834 12.2595 12.178 11.7712 12.5963 11.1449C13.0145 10.5186 13.2378 9.7823 13.2378 9.02915C13.2388 8.52797 13.1406 8.03153 12.9491 7.5684C12.7575 7.10527 12.4763 6.68458 12.1215 6.33053C11.7668 5.97649 11.3456 5.69607 10.8821 5.5054C10.4186 5.31474 9.92193 5.21759 9.42075 5.21955ZM9.42075 11.502C8.93166 11.502 8.45355 11.357 8.04688 11.0853C7.64022 10.8136 7.32326 10.4274 7.13609 9.97549C6.94892 9.52362 6.89995 9.02641 6.99537 8.54671C7.09079 8.06702 7.32631 7.62639 7.67215 7.28055C8.01799 6.93471 8.45862 6.69918 8.93831 6.60377C9.41801 6.50835 9.91523 6.55732 10.3671 6.74449C10.819 6.93166 11.2052 7.24862 11.4769 7.65528C11.7486 8.06195 11.8937 8.54006 11.8937 9.02915C11.8937 9.3539 11.8297 9.67546 11.7054 9.97549C11.5811 10.2755 11.399 10.5481 11.1694 10.7778C10.9397 11.0074 10.6671 11.1895 10.3671 11.3138C10.0671 11.4381 9.7455 11.502 9.42075 11.502Z" fill="white"/>
</svg>
