<svg width="25" height="25" viewBox="0 0 25 25" fill="none" xmlns="http://www.w3.org/2000/svg">
<path d="M12.2917 20.0312L15.4573 11.1583H12.8125V4.84792L9.64687 13.7625H12.2917V20.0312ZM12.5031 21.875C11.2073 21.875 9.98854 21.6292 8.84687 21.1375C7.7059 20.6451 6.71319 19.9771 5.86875 19.1333C5.02431 18.2896 4.3559 17.2979 3.86354 16.1583C3.37118 15.0187 3.125 13.8003 3.125 12.5031C3.125 11.2059 3.37118 9.98715 3.86354 8.84687C4.35521 7.7059 5.02222 6.71319 5.86458 5.86875C6.70694 5.02431 7.69896 4.3559 8.84063 3.86354C9.98229 3.37118 11.201 3.125 12.4969 3.125C13.7927 3.125 15.0115 3.37118 16.1531 3.86354C17.2941 4.35521 18.2868 5.02257 19.1312 5.86562C19.9757 6.70868 20.6441 7.70069 21.1365 8.84167C21.6288 9.98264 21.875 11.201 21.875 12.4969C21.875 13.7927 21.6292 15.0115 21.1375 16.1531C20.6458 17.2948 19.9778 18.2875 19.1333 19.1312C18.2889 19.975 17.2972 20.6434 16.1583 21.1365C15.0194 21.6295 13.801 21.8757 12.5031 21.875ZM12.5 20.8333C14.809 20.8333 16.7753 20.0219 18.399 18.399C20.0226 16.776 20.834 14.8097 20.8333 12.5C20.8326 10.1903 20.0212 8.22396 18.399 6.60104C16.7767 4.97812 14.8104 4.16667 12.5 4.16667C10.1896 4.16667 8.22326 4.97847 6.60104 6.60208C4.97882 8.22569 4.16736 10.1917 4.16667 12.5C4.16597 14.8083 4.97778 16.7747 6.60208 18.399C8.22639 20.0233 10.1924 20.8347 12.5 20.8333Z" fill="url(#paint0_linear_116_1081)"/>
<defs>
<linearGradient id="paint0_linear_116_1081" x1="12.5" y1="3.125" x2="12.5" y2="21.875" gradientUnits="userSpaceOnUse">
<stop stop-color="#B5B5B5"/>
<stop offset="1"/>
</linearGradient>
</defs>
</svg>
