<svg width="25" height="25" viewBox="0 0 25 25" fill="none" xmlns="http://www.w3.org/2000/svg">
<g clip-path="url(#clip0_116_1073)">
<path d="M1.93236 13.6179C1.66034 13.3016 1.51074 12.8984 1.51074 12.4813C1.51074 12.0641 1.66034 11.6609 1.93236 11.3446C2.33474 10.8768 2.73831 10.4167 3.14307 9.96429C3.02045 9.37738 2.9026 8.78453 2.7895 8.18572C2.71172 7.77583 2.78356 7.35163 2.99196 6.9902C3.20036 6.62878 3.5315 6.3541 3.92522 6.21607C4.50855 6.01131 5.08831 5.81429 5.6645 5.625C5.85141 5.05476 6.04605 4.48215 6.24843 3.90715C6.38637 3.51415 6.6605 3.18354 7.02115 2.97521C7.38181 2.76687 7.80515 2.69458 8.2145 2.77143C8.80974 2.88334 9.40022 3 9.98593 3.12143C10.4312 2.72381 10.8835 2.32738 11.3431 1.93215C11.6593 1.66012 12.0626 1.51053 12.4797 1.51053C12.8968 1.51053 13.3001 1.66012 13.6163 1.93215C14.0806 2.32976 14.5353 2.72857 14.9806 3.12857C15.5758 3.00357 16.1764 2.88453 16.7824 2.77143C17.192 2.69412 17.6157 2.76618 17.9768 2.97455C18.3378 3.18292 18.6122 3.51379 18.7502 3.90715C18.9526 4.48334 19.1472 5.05596 19.3341 5.625C19.9103 5.81548 20.4901 6.0125 21.0734 6.21607C21.8859 6.50179 22.3681 7.3375 22.2091 8.18572C22.0949 8.79524 21.9752 9.39822 21.8502 9.99465C22.255 10.4482 22.6597 10.9107 23.0645 11.3821C23.3368 11.6981 23.4867 12.1013 23.487 12.5184C23.4873 12.9355 23.3381 13.3389 23.0663 13.6554C22.6651 14.1232 22.2615 14.5833 21.8556 15.0357C21.9794 15.6226 22.0972 16.2161 22.2091 16.8161C22.2865 17.2257 22.2144 17.6495 22.006 18.0105C21.7977 18.3715 21.4668 18.6459 21.0734 18.7839C20.4901 18.9887 19.9103 19.1857 19.3341 19.375C19.146 19.9464 18.9514 20.5191 18.7502 21.0929C18.6126 21.4865 18.3383 21.8178 17.9772 22.0265C17.6162 22.2353 17.1922 22.3076 16.7824 22.2304C16.1908 22.1187 15.6003 22.0015 15.0109 21.8786C14.5657 22.2774 14.1133 22.6738 13.6538 23.0679C13.3376 23.3399 12.9343 23.4895 12.5172 23.4895C12.1001 23.4895 11.6968 23.3399 11.3806 23.0679C10.9163 22.6702 10.4615 22.2714 10.0163 21.8714C9.42105 21.9964 8.82045 22.1155 8.2145 22.2286C7.80488 22.3059 7.38111 22.2338 7.02007 22.0255C6.65903 21.8171 6.38463 21.4862 6.24664 21.0929C6.04652 20.5221 5.85187 19.9495 5.66272 19.375C5.08103 19.1843 4.50124 18.9879 3.92343 18.7857C3.52972 18.6477 3.19858 18.373 2.99017 18.0116C2.78177 17.6502 2.70994 17.226 2.78772 16.8161C2.902 16.2054 3.02164 15.6018 3.14664 15.0054C2.73739 14.5468 2.33261 14.0843 1.93236 13.6179Z" stroke="url(#paint0_linear_116_1073)" stroke-width="1.78571" stroke-linejoin="round"/>
<path d="M8.25 13.8179L11.0929 16.75C12.4321 12.9054 13.5464 11.2179 16.0714 8.92859" stroke="url(#paint1_linear_116_1073)" stroke-width="1.78571" stroke-linecap="round" stroke-linejoin="round"/>
</g>
<defs>
<linearGradient id="paint0_linear_116_1073" x1="12.4989" y1="1.51053" x2="12.4989" y2="23.4895" gradientUnits="userSpaceOnUse">
<stop stop-color="#B5B5B5"/>
<stop offset="1"/>
</linearGradient>
<linearGradient id="paint1_linear_116_1073" x1="12.1607" y1="8.92859" x2="12.1607" y2="16.75" gradientUnits="userSpaceOnUse">
<stop stop-color="#B5B5B5"/>
<stop offset="1"/>
</linearGradient>
<clipPath id="clip0_116_1073">
<rect width="25" height="25" fill="white"/>
</clipPath>
</defs>
</svg>
