<svg width="25" height="25" viewBox="0 0 25 25" fill="none" xmlns="http://www.w3.org/2000/svg">
<g clip-path="url(#clip0_116_1037)">
<path d="M1.84635 20.6229C1.8936 21.2785 2.1754 21.8951 2.64016 22.3598C3.10491 22.8246 3.72152 23.1064 4.37708 23.1536C6.10417 23.2911 8.80937 23.4375 12.5 23.4375C16.1901 23.4375 18.8958 23.2911 20.6229 23.1536C21.2785 23.1064 21.8951 22.8246 22.3598 22.3598C22.8246 21.8951 23.1064 21.2785 23.1536 20.6229C23.2911 18.8958 23.4375 16.1906 23.4375 12.5C23.4375 8.8099 23.2911 6.10417 23.1536 4.37708C23.1064 3.72152 22.8246 3.10491 22.3598 2.64016C21.8951 2.1754 21.2785 1.8936 20.6229 1.84635C18.8958 1.70885 16.1906 1.5625 12.5 1.5625C8.8099 1.5625 6.10417 1.70885 4.37708 1.84635C3.72152 1.8936 3.10491 2.1754 2.64016 2.64016C2.1754 3.10491 1.8936 3.72152 1.84635 4.37708C1.70885 6.10417 1.5625 8.80937 1.5625 12.5C1.5625 16.1901 1.70885 18.8958 1.84635 20.6229Z" stroke="url(#paint0_linear_116_1037)" stroke-width="1.5625" stroke-linecap="round"/>
<path d="M15.9766 1.60886C15.9532 3.82761 15.7923 6.0974 15.699 7.25C15.6921 7.33505 15.6641 7.41704 15.6176 7.48858C15.5711 7.56012 15.5075 7.61896 15.4326 7.65978C15.3577 7.70061 15.2737 7.72214 15.1884 7.72243C15.1031 7.72272 15.019 7.70177 14.9438 7.66146L12.6209 6.43281C12.5834 6.41302 12.5417 6.40267 12.4993 6.40267C12.4569 6.40267 12.4152 6.41302 12.3777 6.43281L10.0558 7.66198C9.98059 7.70229 9.89652 7.72324 9.81119 7.72295C9.72586 7.72266 9.64195 7.70113 9.56702 7.6603C9.49209 7.61948 9.4285 7.56064 9.38198 7.4891C9.33547 7.41757 9.3075 7.33557 9.30059 7.25052C9.20684 6.0974 9.04642 3.82761 9.02246 1.60886" stroke="url(#paint1_linear_116_1037)" stroke-width="1.5625" stroke-linecap="round" stroke-linejoin="round"/>
<path d="M18.75 18.75H14.0625M18.75 14.5833H16.1458" stroke="url(#paint2_linear_116_1037)" stroke-width="1.5625" stroke-linecap="round"/>
</g>
<defs>
<linearGradient id="paint0_linear_116_1037" x1="12.5" y1="1.5625" x2="12.5" y2="23.4375" gradientUnits="userSpaceOnUse">
<stop stop-color="#B5B5B5"/>
<stop offset="1"/>
</linearGradient>
<linearGradient id="paint1_linear_116_1037" x1="12.4995" y1="1.60886" x2="12.4995" y2="7.72295" gradientUnits="userSpaceOnUse">
<stop stop-color="#B5B5B5"/>
<stop offset="1"/>
</linearGradient>
<linearGradient id="paint2_linear_116_1037" x1="16.4062" y1="14.5833" x2="16.4062" y2="18.75" gradientUnits="userSpaceOnUse">
<stop stop-color="#B5B5B5"/>
<stop offset="1"/>
</linearGradient>
<clipPath id="clip0_116_1037">
<rect width="25" height="25" fill="white"/>
</clipPath>
</defs>
</svg>
