<svg width="35" height="36" viewBox="0 0 35 36" fill="none" xmlns="http://www.w3.org/2000/svg">
<path d="M11.1067 32.2738C10.4533 32.2738 9.89722 32.0444 9.43833 31.5855C8.97944 31.1266 8.75 30.571 8.75 29.9186V5.46239C8.75 4.79155 8.97507 4.23155 9.42521 3.78239C9.87535 3.33322 10.4358 3.10815 11.1067 3.10718H24.0071C24.6585 3.10718 25.2141 3.33662 25.674 3.79551C26.1328 4.2544 26.3623 4.81051 26.3623 5.46384V10.1509C26.7249 10.1898 27.0399 10.3405 27.3073 10.603C27.5747 10.8645 27.7083 11.1795 27.7083 11.548V14.1278C27.7083 14.4963 27.5747 14.8113 27.3073 15.0728C27.0399 15.3343 26.7249 15.485 26.3623 15.5249V29.9172C26.3623 30.5686 26.1328 31.1242 25.674 31.5841C25.2151 32.0429 24.6594 32.2724 24.0071 32.2724L11.1067 32.2738ZM11.1067 30.8155H24.0071C24.2686 30.8155 24.4835 30.7314 24.6517 30.5632C24.8199 30.395 24.904 30.1802 24.904 29.9186V5.46239C24.904 5.20086 24.8199 4.986 24.6517 4.8178C24.4835 4.64961 24.2686 4.56551 24.0071 4.56551H11.1067C10.8442 4.56551 10.6288 4.64961 10.4606 4.8178C10.2924 4.986 10.2083 5.20134 10.2083 5.46384V29.9186C10.2083 30.1802 10.2924 30.395 10.4606 30.5632C10.6288 30.7314 10.8442 30.8155 11.1067 30.8155ZM16.8831 23.8593L20.5858 16.4568H18.1169V11.5203L14.4156 18.9243H16.8831V23.8593Z" fill="white"/>
</svg>
