<svg width="35" height="36" viewBox="0 0 35 36" fill="none" xmlns="http://www.w3.org/2000/svg">
<path d="M6.34375 14.3755C6.74211 14.2942 7.09609 14.0679 7.33705 13.7404C7.57802 13.413 7.68881 13.0077 7.64795 12.6032C7.60708 12.1987 7.41747 11.8237 7.11588 11.5511C6.81429 11.2784 6.4222 11.1274 6.01563 11.1274C5.60906 11.1274 5.21697 11.2784 4.91538 11.5511C4.61378 11.8237 4.42418 12.1987 4.38331 12.6032C4.34245 13.0077 4.45324 13.413 4.6942 13.7404C4.93517 14.0679 5.28915 14.2942 5.6875 14.3755V22.2841H6.34375V14.3755ZM18.62 16.0701C19.2704 15.0303 20.0346 14.291 20.7813 13.8097V19.6912C20.3833 19.7725 20.0297 19.9987 19.789 20.3258C19.5483 20.653 19.4377 21.0579 19.4785 21.4621C19.5194 21.8662 19.7088 22.2407 20.0102 22.5131C20.3115 22.7855 20.7032 22.9363 21.1094 22.9363C21.5156 22.9363 21.9073 22.7855 22.2086 22.5131C22.5099 22.2407 22.6994 21.8662 22.7402 21.4621C22.7811 21.0579 22.6705 20.653 22.4298 20.3258C22.1891 19.9987 21.8355 19.7725 21.4375 19.6912V13.448C21.9625 13.2089 22.4583 13.0966 22.8769 13.0966H24.7188V21.0037C24.32 21.085 23.9657 21.3115 23.7244 21.6392C23.4832 21.967 23.3722 22.3726 23.4131 22.7775C23.454 23.1824 23.6437 23.5577 23.9456 23.8307C24.2475 24.1036 24.6399 24.2547 25.0469 24.2547C25.4538 24.2547 25.8463 24.1036 26.1482 23.8307C26.45 23.5577 26.6398 23.1824 26.6807 22.7775C26.7215 22.3726 26.6106 21.967 26.3693 21.6392C26.1281 21.3115 25.7738 21.085 25.375 21.0037V13.0966H28.6563V21.0037C28.2579 21.085 27.9039 21.3113 27.663 21.6388C27.422 21.9663 27.3112 22.3715 27.3521 22.776C27.3929 23.1806 27.5825 23.5555 27.8841 23.8281C28.1857 24.1008 28.5778 24.2518 28.9844 24.2518C29.391 24.2518 29.783 24.1008 30.0846 23.8281C30.3862 23.5555 30.5758 23.1806 30.6167 22.776C30.6576 22.3715 30.5468 21.9663 30.3058 21.6388C30.0648 21.3113 29.7109 21.085 29.3125 21.0037V13.0966H30.625V12.4403H22.8769C21.4113 12.4403 19.4308 13.4962 18.0221 15.7916C17.5809 15.6698 17.111 15.7055 16.6933 15.8926C16.2755 16.0798 15.9361 16.4066 15.7332 16.8169C15.5304 17.2272 15.4769 17.6954 15.5819 18.1409C15.6869 18.5865 15.9438 18.9815 16.3085 19.258C15.7645 20.0945 15.0529 20.809 14.2188 21.3566V15.688C14.6171 15.6067 14.9711 15.3804 15.2121 15.0529C15.453 14.7255 15.5638 14.3202 15.5229 13.9157C15.4821 13.5112 15.2925 13.1362 14.9909 12.8636C14.6893 12.5909 14.2972 12.4399 13.8906 12.4399C13.4841 12.4399 13.092 12.5909 12.7904 12.8636C12.4888 13.1362 12.2992 13.5112 12.2583 13.9157C12.2174 14.3202 12.3282 14.7255 12.5692 15.0529C12.8102 15.3804 13.1641 15.6067 13.5625 15.688V21.7314C12.7969 22.1105 12.0575 22.2841 11.4713 22.2841H4.375V22.9403H11.4713C13.0375 22.9403 15.365 21.9268 16.8919 19.5628C17.3418 19.7097 17.8295 19.6897 18.2658 19.5063C18.7021 19.323 19.0577 18.9886 19.2676 18.5644C19.4775 18.1403 19.5275 17.6547 19.4086 17.1966C19.2897 16.7385 19.0097 16.3386 18.62 16.0701ZM9.625 14.3755C9.22665 14.2942 8.87267 14.0679 8.6317 13.7404C8.39074 13.413 8.27995 13.0077 8.32081 12.6032C8.36168 12.1987 8.55128 11.8237 8.85288 11.5511C9.15447 11.2784 9.54656 11.1274 9.95313 11.1274C10.3597 11.1274 10.7518 11.2784 11.0534 11.5511C11.355 11.8237 11.5446 12.1987 11.5854 12.6032C11.6263 13.0077 11.5155 13.413 11.2746 13.7404C11.0336 14.0679 10.6796 14.2942 10.2813 14.3755V22.2841H9.625V14.3755Z" fill="white"/>
</svg>
