<svg width="19" height="18" viewBox="0 0 19 18" fill="none" xmlns="http://www.w3.org/2000/svg">
<path d="M11.0972 9.02868L8.49805 10.5139V7.54346L11.0972 9.02868Z" fill="white" stroke="white" stroke-width="0.875" stroke-linecap="round" stroke-linejoin="round"/>
<path d="M2.18604 9.55467V8.50313C2.18604 6.35326 2.18604 5.27796 2.8581 4.58659C3.53091 3.89447 4.58987 3.86477 6.70706 3.80462C7.70959 3.7764 8.73439 3.75635 9.61216 3.75635C10.4899 3.75635 11.514 3.7764 12.5173 3.80462C14.6344 3.86477 15.6934 3.89447 16.3655 4.58659C17.0375 5.2787 17.0383 6.35401 17.0383 8.50313V9.55392C17.0383 11.7045 17.0383 12.7791 16.3662 13.4712C15.6934 14.1626 14.6352 14.193 12.5173 14.2524C11.5147 14.2814 10.4899 14.3014 9.61216 14.3014C8.73439 14.3014 7.71033 14.2814 6.70706 14.2524C4.58987 14.193 3.53091 14.1633 2.8581 13.4712C2.18529 12.7791 2.18604 11.7038 2.18604 9.55467Z" stroke="white" stroke-width="0.875"/>
</svg>
