<svg width="14" height="14" viewBox="0 0 14 14" fill="none" xmlns="http://www.w3.org/2000/svg">
<path fill-rule="evenodd" clip-rule="evenodd" d="M11.8467 2.78181C13.162 4.15753 13.162 6.38805 11.8467 7.76379L6.99984 12.8333L2.15297 7.76379C0.837682 6.38805 0.837682 4.15753 2.15297 2.78179C3.37335 1.50538 5.29726 1.41323 6.61916 2.50542C6.72345 2.59168 6.8226 2.68396 6.91612 2.78179L6.99984 2.86937L7.08354 2.78181C7.17848 2.68253 7.27765 2.59041 7.38049 2.50542C8.70243 1.41323 10.6263 1.50535 11.8467 2.78181ZM2.99625 3.58802C3.85208 2.69287 5.217 2.69287 6.07283 3.58802L6.99984 4.55763L7.92682 3.58805C8.78265 2.69289 10.1476 2.69289 11.0034 3.58805C11.8875 4.51276 11.8875 6.03282 11.0034 6.95756L10.9197 7.04512L6.99984 11.1451L2.99625 6.95756C2.11215 6.03282 2.11215 4.51276 2.99625 3.58802Z" fill="white"/>
</svg>
