<svg width="14" height="14" viewBox="0 0 14 14" fill="none" xmlns="http://www.w3.org/2000/svg">
<path d="M12.1256 5.26336C12.0527 5.27911 11.0738 5.50719 9.81967 6.29819C9.63125 5.38411 9.07359 3.67261 7.42334 1.93194L6.99984 1.48511L6.57634 1.93252C4.92025 3.67961 4.36492 5.39577 4.17825 6.31569C2.91942 5.51127 1.94817 5.28027 1.877 5.26394L1.1665 5.10527V5.83327C1.1665 10.0858 3.45609 12.8333 6.99984 12.8333C10.4888 12.8333 12.8332 10.0204 12.8332 5.83327V5.10877L12.1256 5.26336ZM5.24925 7.02211C5.25042 7.00286 5.33792 5.21377 6.99984 3.21177C8.64134 5.19511 8.74984 6.99994 8.74984 6.99994V7.07286C8.0959 7.61673 7.50675 8.23407 6.994 8.91269C6.47964 8.24621 5.89465 7.63736 5.24925 7.09677V7.02211ZM6.99984 11.6666C3.89884 11.6666 2.59625 9.21894 2.36992 6.67094C3.33534 7.08977 5.06259 8.08611 6.51567 10.2427L7.00625 10.9713L7.4875 10.2363C8.90267 8.07327 10.6521 7.07986 11.6268 6.66511C11.3947 9.13144 10.0938 11.6666 6.99984 11.6666Z" fill="white"/>
</svg>
